HIERARCHY
ROOT Hips
{
	OFFSET 0.000000 121.760803 0.000000
	CHANNELS 6 Xposition Yposition Zposition Xrotation Yrotation Zrotation 
	JOINT Spine
	{
		OFFSET 0.072000 7.257294 -0.789700
		CHANNELS 3 Xrotation Yrotation Zrotation
		JOINT Spine1
		{
			OFFSET 0.000000 12.508769 -0.658067
			CHANNELS 3 Xrotation Yrotation Zrotation
			JOINT Spine1_split
			{
				OFFSET 0.000000 12.508769 -0.658067
				CHANNELS 3 Xrotation Yrotation Zrotation
				JOINT Spine2
				{
					OFFSET 0.000000 12.508769 -0.658067
					CHANNELS 3 Xrotation Yrotation Zrotation
					JOINT Neck
					{
						OFFSET 0.000000 14.033295 7.520400
						CHANNELS 3 Xrotation Yrotation Zrotation
						JOINT Head
						{
							OFFSET 0.000000 8.198502 5.703100
							CHANNELS 3 Xrotation Yrotation Zrotation
							JOINT HeadTop_End
							{
								OFFSET 0.000000 17.760803 13.332701
								CHANNELS 3 Xrotation Yrotation Zrotation
								End Site
								{
									OFFSET 0.000000 0.000000 0.000000
								}
							}
						}
					}
					JOINT LeftShoulder
					{
						OFFSET 6.292450 5.785301 -0.669000
						CHANNELS 3 Xrotation Yrotation Zrotation
						JOINT LeftShoulder_split
						{
							OFFSET 6.292450 5.785301 -0.669000
							CHANNELS 3 Xrotation Yrotation Zrotation
							JOINT LeftArm
							{
								OFFSET 13.907140 -6.093903 1.965100
								CHANNELS 3 Xrotation Yrotation Zrotation
								JOINT LeftForeArm
								{
									OFFSET 34.140198 0.000000 0.000000
									CHANNELS 3 Xrotation Yrotation Zrotation
									JOINT LeftHand
									{
										OFFSET 40.960209 0.000000 0.000000
										CHANNELS 3 Xrotation Yrotation Zrotation
										JOINT LeftHandThumb1
										{
											OFFSET 10.006996 -7.170425 9.573125
											CHANNELS 3 Xrotation Yrotation Zrotation
											JOINT LeftHandThumb2
											{
												OFFSET 1.835007 -1.059448 1.059443
												CHANNELS 3 Xrotation Yrotation Zrotation
												JOINT LeftHandThumb3
												{
													OFFSET 2.112267 -1.219513 1.219518
													CHANNELS 3 Xrotation Yrotation Zrotation
													JOINT LeftHandThumb4
													{
														OFFSET 4.843811 -2.796570 2.796576
														CHANNELS 3 Xrotation Yrotation Zrotation
														End Site
														{
															OFFSET 0.000000 0.000000 0.000000
														}
													}
												}
											}
										}
										JOINT LeftHandIndex1
										{
											OFFSET 18.389847 -0.922348 4.596882
											CHANNELS 3 Xrotation Yrotation Zrotation
											JOINT LeftHandIndex2
											{
												OFFSET 4.711273 0.000000 0.000000
												CHANNELS 3 Xrotation Yrotation Zrotation
												JOINT LeftHandIndex3
												{
													OFFSET 2.886131 0.000000 0.000000
													CHANNELS 3 Xrotation Yrotation Zrotation
													JOINT LeftHandIndex4
													{
														OFFSET 6.145912 0.000000 0.000000
														CHANNELS 3 Xrotation Yrotation Zrotation
														End Site
														{
															OFFSET 0.000000 0.000000 0.000000
														}
													}
												}
											}
										}
										JOINT LeftHandMiddle1
										{
											OFFSET 18.013008 0.000000 0.000000
											CHANNELS 3 Xrotation Yrotation Zrotation
											JOINT LeftHandMiddle2
											{
												OFFSET 4.946693 0.000000 0.000000
												CHANNELS 3 Xrotation Yrotation Zrotation
												JOINT LeftHandMiddle3
												{
													OFFSET 3.342232 0.000000 0.000000
													CHANNELS 3 Xrotation Yrotation Zrotation
													JOINT LeftHandMiddle4
													{
														OFFSET 4.461754 0.000000 0.000000
														CHANNELS 3 Xrotation Yrotation Zrotation
														End Site
														{
															OFFSET 0.000000 0.000000 0.000000
														}
													}
												}
											}
										}
										JOINT LeftHandRing1
										{
											OFFSET 15.849892 -0.102921 -4.126150
											CHANNELS 3 Xrotation Yrotation Zrotation
											JOINT LeftHandRing2
											{
												OFFSET 3.527054 0.000000 0.000000
												CHANNELS 3 Xrotation Yrotation Zrotation
												JOINT LeftHandRing3
												{
													OFFSET 2.961098 0.000000 0.000000
													CHANNELS 3 Xrotation Yrotation Zrotation
													JOINT LeftHandRing4
													{
														OFFSET 4.927200 0.000000 0.000000
														CHANNELS 3 Xrotation Yrotation Zrotation
														End Site
														{
															OFFSET 0.000000 0.000000 0.000000
														}
													}
												}
											}
										}
										JOINT LeftHandPinky1
										{
											OFFSET 12.791824 -0.832031 -6.799156
											CHANNELS 3 Xrotation Yrotation Zrotation
											JOINT LeftHandPinky2
											{
												OFFSET 3.327133 0.000000 0.000000
												CHANNELS 3 Xrotation Yrotation Zrotation
												JOINT LeftHandPinky3
												{
													OFFSET 3.014900 0.000000 0.000000
													CHANNELS 3 Xrotation Yrotation Zrotation
													JOINT LeftHandPinky4
													{
														OFFSET 5.847786 0.000000 0.000000
														CHANNELS 3 Xrotation Yrotation Zrotation
														End Site
														{
															OFFSET 0.000000 0.000000 0.000000
														}
													}
												}
											}
										}
									}
								}
							}
						}
					}
					JOINT RightShoulder
					{
						OFFSET -6.292450 5.785301 -0.669000
						CHANNELS 3 Xrotation Yrotation Zrotation
						JOINT RightShoulder_split
						{
							OFFSET -6.292450 5.785301 -0.669000
							CHANNELS 3 Xrotation Yrotation Zrotation
							JOINT RightArm
							{
								OFFSET -13.907140 -6.093903 1.965100
								CHANNELS 3 Xrotation Yrotation Zrotation
								JOINT RightForeArm
								{
									OFFSET -34.140198 0.000000 0.000000
									CHANNELS 3 Xrotation Yrotation Zrotation
									JOINT RightHand
									{
										OFFSET -40.960209 0.000000 0.000000
										CHANNELS 3 Xrotation Yrotation Zrotation
										JOINT RightHandThumb1
										{
											OFFSET -10.007050 -7.170456 9.573117
											CHANNELS 3 Xrotation Yrotation Zrotation
											JOINT RightHandThumb2
											{
												OFFSET -1.835007 -1.059448 1.059443
												CHANNELS 3 Xrotation Yrotation Zrotation
												JOINT RightHandThumb3
												{
													OFFSET -2.112267 -1.219513 1.219518
													CHANNELS 3 Xrotation Yrotation Zrotation
													JOINT RightHandThumb4
													{
														OFFSET -4.843834 -2.796585 2.796590
														CHANNELS 3 Xrotation Yrotation Zrotation
														End Site
														{
															OFFSET 0.000000 0.000000 0.000000
														}
													}
												}
											}
										}
										JOINT RightHandIndex1
										{
											OFFSET -18.389870 -0.922424 4.596786
											CHANNELS 3 Xrotation Yrotation Zrotation
											JOINT RightHandIndex2
											{
												OFFSET -4.711273 0.000000 0.000000
												CHANNELS 3 Xrotation Yrotation Zrotation
												JOINT RightHandIndex3
												{
													OFFSET -2.886131 0.000000 0.000000
													CHANNELS 3 Xrotation Yrotation Zrotation
													JOINT RightHandIndex4
													{
														OFFSET -6.145920 0.000000 0.000000
														CHANNELS 3 Xrotation Yrotation Zrotation
														End Site
														{
															OFFSET 0.000000 0.000000 0.000000
														}
													}
												}
											}
										}
										JOINT RightHandMiddle1
										{
											OFFSET -18.013008 0.000000 0.000000
											CHANNELS 3 Xrotation Yrotation Zrotation
											JOINT RightHandMiddle2
											{
												OFFSET -4.946693 0.000000 0.000000
												CHANNELS 3 Xrotation Yrotation Zrotation
												JOINT RightHandMiddle3
												{
													OFFSET -3.342232 0.000000 0.000000
													CHANNELS 3 Xrotation Yrotation Zrotation
													JOINT RightHandMiddle4
													{
														OFFSET -4.461754 0.000000 0.000000
														CHANNELS 3 Xrotation Yrotation Zrotation
														End Site
														{
															OFFSET 0.000000 0.000000 0.000000
														}
													}
												}
											}
										}
										JOINT RightHandRing1
										{
											OFFSET -15.849876 -0.102936 -4.126237
											CHANNELS 3 Xrotation Yrotation Zrotation
											JOINT RightHandRing2
											{
												OFFSET -3.527054 0.000000 0.000000
												CHANNELS 3 Xrotation Yrotation Zrotation
												JOINT RightHandRing3
												{
													OFFSET -2.961098 0.000000 0.000000
													CHANNELS 3 Xrotation Yrotation Zrotation
													JOINT RightHandRing4
													{
														OFFSET -4.927200 0.000000 0.000000
														CHANNELS 3 Xrotation Yrotation Zrotation
														End Site
														{
															OFFSET 0.000000 0.000000 0.000000
														}
													}
												}
											}
										}
										JOINT RightHandPinky1
										{
											OFFSET -12.791786 -0.832077 -6.799222
											CHANNELS 3 Xrotation Yrotation Zrotation
											JOINT RightHandPinky2
											{
												OFFSET -3.327133 0.000000 0.000000
												CHANNELS 3 Xrotation Yrotation Zrotation
												JOINT RightHandPinky3
												{
													OFFSET -3.014900 0.000000 0.000000
													CHANNELS 3 Xrotation Yrotation Zrotation
													JOINT RightHandPinky4
													{
														OFFSET -5.847786 0.000000 0.000000
														CHANNELS 3 Xrotation Yrotation Zrotation
														End Site
														{
															OFFSET 0.000000 0.000000 0.000000
														}
													}
												}
											}
										}
									}
								}
							}
						}
					}
				}
			}
		}
	}
	JOINT LeftUpLeg
	{
		OFFSET 13.026900 -6.336304 -1.092800
		CHANNELS 3 Xrotation Yrotation Zrotation
		JOINT LeftLeg
		{
			OFFSET 0.524474 -46.096886 9.782700
			CHANNELS 3 Xrotation Yrotation Zrotation
			JOINT LeftFoot
			{
				OFFSET -0.524474 -53.427422 -12.948200
				CHANNELS 3 Xrotation Yrotation Zrotation
				JOINT LeftToeBase
				{
					OFFSET 0.192200 -14.009700 16.364100
					CHANNELS 3 Xrotation Yrotation Zrotation
					JOINT LeftToe_End
					{
						OFFSET -1.784700 -0.561700 9.474800
						CHANNELS 3 Xrotation Yrotation Zrotation
						End Site
						{
							OFFSET 0.000000 0.000000 0.000000
						}
					}
				}
			}
		}
	}
	JOINT RightUpLeg
	{
		OFFSET -12.883000 -6.336304 -1.092800
		CHANNELS 3 Xrotation Yrotation Zrotation
		JOINT RightLeg
		{
			OFFSET -0.524587 -46.096825 9.782800
			CHANNELS 3 Xrotation Yrotation Zrotation
			JOINT RightFoot
			{
				OFFSET 0.524587 -53.427383 -12.948300
				CHANNELS 3 Xrotation Yrotation Zrotation
				JOINT RightToeBase
				{
					OFFSET -0.192200 -14.009700 16.364100
					CHANNELS 3 Xrotation Yrotation Zrotation
					JOINT RightToe_End
					{
						OFFSET 1.784700 -0.561700 9.474800
						CHANNELS 3 Xrotation Yrotation Zrotation
						End Site
						{
							OFFSET 0.000000 0.000000 0.000000
						}
					}
				}
			}
		}
	}
}
MOTION
Frames: 4
Frame Time: 0.016667
-0.838232 89.301720 5.085014 26.329488 -23.083558 9.081427 14.959212 2.472226 -1.106448 8.954929 1.454256 -0.667655 0.000000 0.000000 0.000000 8.929226 1.567214 -0.769624 -7.642834 3.429840 -7.508565 -43.074779 9.987861 7.921034 0.000000 -0.000000 0.000000 3.858302 -6.469474 9.422126 0.000000 0.000000 0.000000 -49.881049 5.784868 -65.370941 0.008398 -89.198220 0.008216 6.361841 1.183442 20.596039 -17.636571 -15.237867 2.797092 5.947440 34.911662 2.502035 0.571368 15.024043 3.781401 -0.000000 0.000001 -0.000002 0.388062 -2.283062 19.290727 0.587326 2.787354 -23.793328 0.148325 1.424275 -11.889520 -0.000002 0.000001 -0.000000 0.388704 -2.284888 19.306737 0.588103 2.789123 -23.809329 0.148316 1.424258 -11.889507 -0.000001 -0.000000 -0.000001 0.388075 -2.283051 19.290734 0.587315 2.787353 -23.793328 0.148305 1.424272 -11.889523 0.000001 -0.000000 0.000001 -0.967832 1.537874 19.792333 0.593527 -1.272002 -24.261674 0.148320 1.424267 -11.889515 0.000000 -0.000001 0.000000 3.960213 12.222857 4.273389 0.000000 0.000000 0.000000 -38.946893 11.840058 48.020833 -0.000088 93.734839 0.000120 19.436167 10.205498 7.992466 30.641417 13.211246 -0.281792 7.057598 -37.365909 -1.833691 -0.060059 -14.189588 -3.533740 0.000000 -0.000000 -0.000002 0.155611 1.465707 -12.119903 0.379773 -2.270636 18.987429 0.095540 -1.151064 9.489966 0.000000 -0.000000 -0.000003 0.155607 1.465706 -12.119903 0.379769 -2.270640 18.987420 0.095550 -1.151062 9.489968 -0.000000 -0.000000 0.000003 0.155608 1.465712 -12.119898 0.379774 -2.270645 18.987419 0.095551 -1.151057 9.489973 -0.000000 -0.000001 -0.000000 0.155603 1.465710 -12.119895 0.379783 -2.270643 18.987422 0.095548 -1.151068 9.489961 0.000003 -0.000000 -0.000002 -77.066151 -2.312057 23.153983 57.672437 -0.376073 5.114867 -2.159036 1.039706 -18.894909 -0.000015 0.000001 0.000019 0.000000 -0.000000 0.000000 -71.997673 -4.551239 -22.869727 61.513592 -0.615733 -7.529228 -10.959939 -3.034218 17.675097 -7.630241 0.000009 0.000010 0.000001 -0.000002 0.000000 
-0.852316 89.431168 5.167076 26.455006 -23.148703 9.129368 14.966136 2.341814 -1.139752 8.942668 1.377977 -0.669282 0.000000 0.000000 0.000000 8.917264 1.494832 -0.768347 -7.594621 3.504784 -7.365771 -43.161314 10.368545 7.992465 0.000001 0.000000 0.000001 3.797570 -6.379668 8.897877 0.000000 0.000000 0.000000 -49.025059 5.833143 -65.558580 0.094507 -90.336205 0.094145 6.494207 1.888110 21.591264 -17.777608 -15.392963 2.760425 5.958645 35.079927 2.510935 0.577789 15.107969 3.788495 0.000000 0.000002 -0.000000 0.392792 -2.296483 19.408870 0.610806 2.839925 -24.271497 0.154308 1.452420 -12.128175 0.000003 -0.000000 -0.000002 0.393421 -2.298317 19.424875 0.611591 2.841705 -24.287502 0.154306 1.452410 -12.128171 -0.000002 0.000001 -0.000000 0.392786 -2.296493 19.408855 0.610808 2.839931 -24.271490 0.154306 1.452426 -12.128171 0.000005 -0.000001 -0.000001 -0.970963 1.521643 19.910065 0.617403 -1.219605 -24.738170 0.154312 1.452416 -12.128157 -0.000001 -0.000000 0.000001 3.972535 12.168645 4.140061 0.000000 0.000000 0.000000 -38.744450 11.705566 49.039983 0.000059 95.072046 -0.000059 22.139756 11.186744 7.333654 30.626445 13.316673 -0.202573 7.068272 -37.497780 -1.838811 -0.055200 -14.255389 -3.539793 0.000000 -0.000001 -0.000000 0.168392 1.523986 -12.609648 0.421767 -2.389077 20.020283 0.106185 -1.213016 10.005734 -0.000001 -0.000001 -0.000002 0.168387 1.523986 -12.609642 0.421766 -2.389077 20.020278 0.106189 -1.213003 10.005744 -0.000001 0.000001 0.000001 0.168387 1.523989 -12.609639 0.421765 -2.389071 20.020287 0.106189 -1.213015 10.005738 0.000001 0.000001 0.000003 0.168389 1.523989 -12.609640 0.421770 -2.389075 20.020283 0.106191 -1.213014 10.005731 0.000001 0.000000 -0.000001 -76.992030 -2.230354 23.182502 57.556290 -0.398386 5.145316 -2.250479 1.037656 -18.917720 -0.000038 -0.000003 0.000043 -0.000000 -0.000000 0.000000 -71.935586 -4.659790 -22.752521 61.316323 -0.743071 -7.658927 -10.991636 -2.871816 17.610731 -7.665194 0.000001 0.000006 -0.000000 0.000000 -0.000000 
-0.881662 89.516151 5.227680 26.602018 -23.228990 9.195068 14.971353 2.197389 -1.153844 8.932664 1.291013 -0.662412 0.000000 0.000000 0.000000 8.908022 1.411636 -0.757963 -7.575342 3.601992 -7.236721 -43.266673 10.835728 8.058441 0.000000 0.000000 0.000000 3.730450 -6.286347 8.218743 0.000000 0.000000 0.000000 -48.220217 5.755348 -65.566592 0.017381 -91.419466 0.017283 6.568270 2.351840 22.524193 -17.920181 -15.550481 2.725535 5.970028 35.250494 2.519956 0.584299 15.193040 3.795662 0.000002 -0.000002 0.000001 0.397598 -2.310104 19.528568 0.616512 2.852533 -24.386248 0.155752 1.459155 -12.185436 -0.000003 0.000001 0.000000 0.398240 -2.311922 19.544573 0.617304 2.854278 -24.402265 0.155760 1.459164 -12.185438 -0.000001 -0.000000 0.000001 0.397602 -2.310100 19.528575 0.616508 2.852533 -24.386253 0.155764 1.459164 -12.185432 0.000002 0.000000 -0.000001 -0.974129 1.505199 20.029361 0.623214 -1.207074 -24.852523 0.155766 1.459161 -12.185426 0.000001 0.000001 0.000000 3.981628 12.107284 3.979449 0.000000 0.000000 0.000000 -38.415846 11.620493 49.978765 0.000646 96.616516 -0.000639 23.882023 11.595340 6.699902 30.612884 13.427150 -0.120942 7.079090 -37.631443 -1.843969 -0.050285 -14.322038 -3.545923 0.000000 -0.000001 -0.000000 0.181678 1.582210 -13.100017 0.465956 -2.506935 21.054743 0.117404 -1.274900 10.522290 0.000001 -0.000001 0.000001 0.181678 1.582213 -13.100013 0.465952 -2.506940 21.054748 0.117419 -1.274903 10.522280 -0.000004 -0.000000 -0.000003 0.181676 1.582206 -13.100014 0.465956 -2.506933 21.054748 0.117422 -1.274908 10.522280 -0.000003 0.000000 -0.000003 0.181678 1.582209 -13.100015 0.465950 -2.506934 21.054748 0.117413 -1.274906 10.522282 0.000001 0.000001 0.000002 -76.959553 -2.197035 23.230863 57.486595 -0.411983 5.176715 -2.338785 1.051030 -19.013416 -0.000052 0.000001 0.000052 -0.000000 0.000000 0.000000 -71.944288 -4.734333 -22.600331 61.195934 -0.747244 -7.767183 -11.024037 -2.850081 17.538855 -7.690690 0.000008 -0.000002 -0.000001 -0.000000 -0.000000 
-0.928230 89.559128 5.267605 26.768973 -23.319721 9.281375 14.979281 2.049528 -1.146569 8.925399 1.196947 -0.646766 0.000000 0.000000 0.000000 8.901912 1.320519 -0.738019 -7.587585 3.716965 -7.129049 -43.385003 11.376621 8.087226 0.000000 0.000000 -0.000000 3.660234 -6.192010 7.427266 0.000000 0.000000 0.000000 -47.464002 5.638787 -65.420966 0.000966 -92.434077 0.000931 6.579928 2.602491 23.316908 -18.073922 -15.721277 2.690584 5.981486 35.423434 2.529098 0.590881 15.279299 3.802916 0.000002 0.000005 -0.000002 0.402497 -2.323866 19.649988 0.622303 2.865286 -24.502621 0.157244 1.466009 -12.243529 -0.000004 0.000000 -0.000002 0.403156 -2.325681 19.665996 0.623112 2.867037 -24.518643 0.157245 1.466007 -12.243521 -0.000000 -0.000001 -0.000003 0.402502 -2.323866 19.649991 0.622294 2.865289 -24.502626 0.157253 1.466014 -12.243535 -0.000001 0.000001 0.000001 -0.977269 1.488520 20.150357 0.629088 -1.194375 -24.968477 0.157254 1.466027 -12.243519 -0.000002 -0.000000 0.000002 3.982094 12.033533 3.810696 0.000000 0.000000 0.000000 -38.063278 11.622202 50.879623 0.000260 98.202062 -0.000231 24.991830 11.467087 6.028774 30.609435 13.454870 -0.100485 7.090060 -37.767002 -1.849189 -0.045300 -14.389643 -3.552131 0.000001 -0.000003 -0.000000 0.195492 1.640385 -13.591135 0.512319 -2.624125 22.090893 0.129211 -1.336828 11.039574 -0.000001 0.000001 -0.000002 0.195492 1.640388 -13.591130 0.512310 -2.624124 22.090903 0.129205 -1.336821 11.039576 -0.000002 0.000000 0.000003 0.195494 1.640388 -13.591129 0.512308 -2.624126 22.090903 0.129199 -1.336832 11.039586 0.000002 -0.000001 0.000005 0.195488 1.640386 -13.591134 0.512319 -2.624127 22.090905 0.129201 -1.336815 11.039584 -0.000002 -0.000001 -0.000002 -76.965522 -2.197127 23.288322 57.452737 -0.409000 5.215419 -2.422129 1.068843 -19.138824 -0.000024 -0.000002 0.000023 -0.000000 -0.000000 0.000000 -72.016695 -4.764921 -22.431200 61.137802 -0.747538 -7.878707 -11.044304 -2.842465 17.517495 -7.701625 0.000000 -0.000005 -0.000001 -0.000000 0.000000 
